<?xml version="1.0" encoding="UTF-8"?>
<svg version="1.1" xmlns="http://www.w3.org/2000/svg" width="512" height="512">
<path d="M0 0 C5.79522611 4.17037476 10.62913786 9.6375177 15.4375 14.875 C21.97602506 21.9277471 28.69401516 28.76402018 35.59155273 35.46630859 C36.27032471 36.13355957 36.94909668 36.80081055 37.6484375 37.48828125 C38.24833496 38.07134033 38.84823242 38.65439941 39.46630859 39.25512695 C41.89401941 42.01712141 42.8967476 44.30673391 43.4375 47.9375 C42.83731108 52.13882245 41.18754766 53.2442317 38 56 C35.57878927 57.43104706 33.0583493 58.58641527 30.5 59.75 C18.60564868 65.44625149 8.53695978 72.87482605 -1 82 C-1.67417969 82.61101562 -2.34835938 83.22203125 -3.04296875 83.8515625 C-24.7877479 104.25085631 -35.85396759 134.99038992 -37.2421875 164.24609375 C-38.17368265 197.81636902 -25.44840621 228.97801061 -2.66577148 253.37988281 C17.25546199 273.92296433 47.21445532 288.56036235 76.04538727 289.1386652 C77.49787958 289.15004617 78.95041847 289.15629671 80.4029541 289.15821838 C81.61377159 289.16562535 81.61377159 289.16562535 82.84905005 289.17318195 C85.53282832 289.18844478 88.21658288 289.19688689 90.90039062 289.20532227 C92.83258266 289.21490963 94.76477263 289.2249202 96.69696045 289.23532104 C101.92771163 289.26228323 107.15847175 289.28333966 112.38925362 289.30332303 C117.86120343 289.32523635 123.33312595 289.35259882 128.80505371 289.37937927 C139.16040117 289.42923401 149.51576384 289.47419955 159.87114096 289.51740164 C171.66313951 289.5668358 183.45511067 289.62173097 195.24708271 289.67708123 C219.49802957 289.79079042 243.74900272 289.89765344 268 290 C267.98952637 289.1121582 267.97905273 288.22431641 267.96826172 287.30957031 C267.93412244 284.00713493 267.90907332 280.70488782 267.89013672 277.40234375 C267.88009573 275.97457922 267.86646019 274.54683517 267.84912109 273.11914062 C267.82478848 271.06375059 267.81349798 269.00863308 267.8046875 266.953125 C267.79421387 265.71723633 267.78374023 264.48134766 267.77294922 263.20800781 C267.98886901 260.15727016 268.32990983 258.51669684 270 256 C272.49994736 254.0555965 273.90894779 253.99712588 277.09375 254.09765625 C282.11843132 254.90329861 285.76529013 257.82925097 289.8125 260.75 C290.63927246 261.33128662 291.46604492 261.91257324 292.31787109 262.51147461 C294.88950419 264.32618434 297.4463689 266.16006468 300 268 C300.77939941 268.55896973 301.55879883 269.11793945 302.36181641 269.69384766 C306.11594138 272.3879844 309.86020775 275.09528498 313.59765625 277.8125 C319.98155891 282.44713722 326.43823608 286.97830282 332.89111328 291.51611328 C337.12962454 294.49847858 341.36236968 297.48903249 345.59448242 300.48046875 C349.30408977 303.10155099 353.01909886 305.7145009 356.7421875 308.31640625 C357.51755859 308.85974609 358.29292969 309.40308594 359.09179688 309.96289062 C360.57837633 311.00438641 362.06657847 312.04357114 363.55664062 313.08007812 C364.56114258 313.78487305 364.56114258 313.78487305 365.5859375 314.50390625 C366.1742334 314.91455322 366.7625293 315.3252002 367.36865234 315.74829102 C371.74547396 319.10656166 371.74547396 319.10656166 372.57421875 322.015625 C372.74477368 325.37967391 372.74574293 327.93465296 370.76953125 330.7578125 C368.6264387 332.7164004 366.38755626 334.34449334 364 336 C363.44715332 336.38881348 362.89430664 336.77762695 362.32470703 337.17822266 C359.0191077 339.49985436 355.68975981 341.78392682 352.34375 344.046875 C348.04536931 346.95755905 343.79842438 349.93687003 339.5625 352.9375 C338.85810791 353.43596436 338.15371582 353.93442871 337.42797852 354.44799805 C335.99881384 355.45966491 334.56985889 356.4716281 333.14111328 357.48388672 C328.89035961 360.49382746 324.63330948 363.49485618 320.37744141 366.49755859 C316.82115488 369.00715697 313.2664144 371.51888745 309.71484375 374.03515625 C306.88849706 376.0375543 304.05745502 378.03302588 301.22265625 380.0234375 C298.33919647 382.04849338 295.4758941 384.09883363 292.62109375 386.1640625 C291.20599224 387.17224435 289.79063695 388.18007012 288.375 389.1875 C287.73618896 389.65744385 287.09737793 390.1273877 286.43920898 390.61157227 C282.33228097 393.50660214 279.15305075 394.74708953 274 395 C271.39345538 394.22508133 270.40317679 393.60755626 268.90673828 391.35253906 C267.67866559 388.16629553 267.77578197 385.45772704 267.8046875 382.046875 C267.80893234 381.05654266 267.80893234 381.05654266 267.81326294 380.04620361 C267.82441585 377.94728103 267.84951054 375.84879258 267.875 373.75 C267.88503616 372.32292285 267.8941609 370.89583898 267.90234375 369.46875 C267.92433889 365.97902672 267.95883464 362.48955577 268 359 C266.50887396 359.00414807 266.50887396 359.00414807 264.98762417 359.00837994 C240.70338591 359.07523289 216.41915971 359.12439724 192.13484859 359.15543652 C180.39072825 359.17084913 168.646669 359.19183033 156.90258789 359.22631836 C146.65623399 359.25639355 136.40992437 359.27561564 126.16352755 359.28226548 C120.74742522 359.28614731 115.33144951 359.29515057 109.91538811 359.31719017 C46.77455511 359.56391949 -6.79218348 346.77611113 -53.0625 301.3125 C-60.91356676 293.45486056 -67.79120192 285.20487551 -74 276 C-74.37801758 275.44006348 -74.75603516 274.88012695 -75.14550781 274.30322266 C-80.90716334 265.62951088 -85.55434695 256.3947668 -90 247 C-90.53625 245.88109375 -91.0725 244.7621875 -91.625 243.609375 C-112.2257739 198.3305907 -111.31943299 145.1299423 -94.18896484 99.04345703 C-84.29603344 73.71999032 -69.54187467 52.69218299 -51 33 C-50.34386719 32.28972656 -49.68773437 31.57945313 -49.01171875 30.84765625 C-39.37662082 20.75865649 -14.75480404 -2.84741832 0 0 Z " fill="#ffffff" transform="translate(137,80)"/>
<path d="M0 0 C1.988227 1.27868472 3.5390335 2.58353697 5.2019043 4.25952148 C5.78560791 4.84435303 6.36931152 5.42918457 6.97070312 6.03173828 C7.5768042 6.65089111 8.18290527 7.27004395 8.80737305 7.90795898 C9.4295874 8.53806885 10.05180176 9.16817871 10.69287109 9.81738281 C22.52306945 21.86754819 22.52306945 21.86754819 23.99487305 26.28295898 C23.07448242 26.8050293 22.1540918 27.32709961 21.20581055 27.86499023 C-11.37570785 46.67270211 -33.93238867 74.89776144 -44.81762695 110.97045898 C-45.11008301 111.93036743 -45.11008301 111.93036743 -45.40844727 112.90966797 C-48.71479258 124.53873171 -49.41439132 136.31901195 -49.38012695 148.34545898 C-49.37958313 149.06773682 -49.37903931 149.79001465 -49.378479 150.53417969 C-49.33727219 162.47954004 -48.41081454 173.78552358 -45.00512695 185.28295898 C-44.79082031 186.01321289 -44.57651367 186.7434668 -44.35571289 187.49584961 C-39.66938899 202.92592917 -32.4860092 217.24206166 -23.00512695 230.28295898 C-22.41473633 231.09764648 -21.8243457 231.91233398 -21.21606445 232.75170898 C-2.44244105 257.35713881 23.77145666 273.95140794 53.49487305 282.03295898 C54.57828979 282.33121582 54.57828979 282.33121582 55.68359375 282.63549805 C69.84111239 286.27034705 83.9360105 286.57855595 98.45263672 286.55761719 C100.46803983 286.56197376 102.48344128 286.56716003 104.49884033 286.57310486 C109.92575248 286.58639256 115.35259457 286.58708591 120.7795198 286.58454156 C125.31811047 286.58346661 129.85668726 286.58836763 134.39527494 286.59314698 C145.09425653 286.60420289 155.79320298 286.60469922 166.4921875 286.59863281 C177.52886575 286.59257157 188.56541722 286.60496732 199.60207385 286.62620288 C209.09366359 286.64379371 218.58521284 286.64982493 228.07681829 286.64656514 C233.73966992 286.64475091 239.40243071 286.6474041 245.06526756 286.66127968 C250.37842829 286.67381526 255.69138961 286.67195461 261.00454712 286.65886879 C262.95568724 286.65649556 264.90684125 286.65926426 266.85796547 286.66749191 C269.51627743 286.67789626 272.17391204 286.66991041 274.8321991 286.65718079 C275.60796034 286.66455507 276.38372157 286.67192936 277.18299073 286.6795271 C280.3577265 286.64743037 282.62981809 286.48219884 285.44254017 284.94707012 C288.11420536 282.08302732 288.15262126 279.13603677 288.3112793 275.39624023 C288.35317383 274.45844727 288.39506836 273.5206543 288.43823242 272.55444336 C288.49720703 271.08974609 288.49720703 271.08974609 288.55737305 269.59545898 C288.60055664 268.60739258 288.64374023 267.61932617 288.68823242 266.60131836 C288.79428959 264.16200352 288.89635018 261.72258785 288.99487305 259.28295898 C294.17512018 262.13847783 298.99967477 265.27949957 303.80737305 268.72045898 C304.54165527 269.24196533 305.2759375 269.76347168 306.0324707 270.30078125 C312.08095469 274.605275 318.0863203 278.96901117 324.09033203 283.33520508 C330.56534661 288.02219033 337.15566591 292.53133612 343.80297852 296.97021484 C347.54230365 299.49075244 350.96165026 301.90099667 353.99487305 305.28295898 C344.14518985 312.48018819 334.22221424 319.54057265 324.12695312 326.3894043 C317.73677831 330.73932278 311.456786 335.22858629 305.21948242 339.79467773 C290.85215901 350.28295898 290.85215901 350.28295898 288.99487305 350.28295898 C288.97299927 349.36800659 288.97299927 349.36800659 288.95068359 348.43457031 C288.87592529 345.65424834 288.77935822 342.87509075 288.68237305 340.09545898 C288.65981445 339.13575195 288.63725586 338.17604492 288.61401367 337.18725586 C288.42147154 330.21112261 288.42147154 330.21112261 284.99487305 324.28295898 C281.20574935 323.01991775 277.66114833 323.13967767 273.71362305 323.14492798 C272.85875242 323.1421067 272.0038818 323.13928542 271.123106 323.13637865 C268.24701926 323.12801948 265.37097096 323.1266932 262.49487305 323.12524414 C260.43661388 323.12057646 258.37835575 323.11543297 256.32009888 323.10984802 C251.8790293 323.09855528 247.43796649 323.09012636 242.99688721 323.08372879 C235.95956938 323.07304386 228.92229957 323.0527935 221.88500977 323.03060913 C201.86989566 322.96871499 181.85478332 322.91480823 161.83959961 322.8815918 C150.79153037 322.86317627 139.74354064 322.83414659 128.69552994 322.79358709 C122.85486122 322.77261839 117.01429231 322.75707443 111.17358398 322.75477982 C105.66434747 322.75261319 100.15531808 322.73654107 94.64614487 322.71039009 C92.63843813 322.70326938 90.63070609 322.70106038 88.62298965 322.70449257 C72.30490325 322.72790422 56.33187595 321.33444751 40.61987305 316.65795898 C39.76321045 316.4070752 38.90654785 316.15619141 38.02392578 315.89770508 C-7.72926985 301.94220973 -44.7333276 270.26468152 -67.19262695 228.28295898 C-75.50913015 212.28475944 -81.26354472 195.11355018 -84.00512695 177.28295898 C-84.20750977 176.21948242 -84.40989258 175.15600586 -84.6184082 174.06030273 C-87.96257552 154.24554263 -87.22303834 132.90288931 -83.00512695 113.28295898 C-82.83883789 112.50339844 -82.67254883 111.72383789 -82.5012207 110.9206543 C-77.03762695 86.26365804 -66.37217685 63.28601983 -51.00512695 43.28295898 C-50.33352539 42.38706055 -49.66192383 41.49116211 -48.9699707 40.56811523 C-37.7374973 26.17583235 -24.20672313 13.39106567 -9.00512695 3.28295898 C-8.38669922 2.86095215 -7.76827148 2.43894531 -7.13110352 2.00415039 C-2.55287586 -0.91291811 -2.55287586 -0.91291811 0 0 Z " fill="#A0D6FD" transform="translate(133.005126953125,99.717041015625)"/>
<path d="M0 0 C0.8245166 -0.0038269 1.6490332 -0.00765381 2.49853516 -0.01159668 C4.23666611 -0.01431097 5.97483825 -0.00698358 7.71289062 0.00976562 C10.36681558 0.03118395 13.0180338 0.00994945 15.671875 -0.015625 C17.36458928 -0.01298164 19.05730189 -0.00785647 20.75 0 C21.93456787 -0.01214539 21.93456787 -0.01214539 23.14306641 -0.02453613 C27.01878991 0.0411221 28.98830473 0.29765757 32.38354492 2.34863281 C34.375 4.53125 34.375 4.53125 34.86328125 7.984375 C34.80527344 9.23734375 34.74726563 10.4903125 34.6875 11.78125 C34.64238281 13.04453125 34.59726563 14.3078125 34.55078125 15.609375 C34.49277344 16.57359375 34.43476563 17.5378125 34.375 18.53125 C38.35436474 20.04066421 42.11241918 21.24707795 46.375 21.53125 C48.69165839 20.0522534 50.01586823 18.41601321 51.73828125 16.2890625 C53.58386152 14.30693572 54.6830965 13.71569755 57.3125 13.15625 C60.88397985 13.11695333 62.40592274 14.04959192 65.0078125 16.44140625 C65.70221436 17.07788086 66.39661621 17.71435547 67.11206055 18.37011719 C71.23451045 22.30710354 75.29109272 26.30371071 79.3125 30.34375 C80.17423828 31.20162109 81.03597656 32.05949219 81.92382812 32.94335938 C82.74173828 33.76255859 83.55964844 34.58175781 84.40234375 35.42578125 C85.51210571 36.53723511 85.51210571 36.53723511 86.64428711 37.67114258 C88.88553352 40.07995291 89.33595362 41.31866416 89.9375 44.59375 C89.1008774 50.45010818 85.48481663 53.48564926 81.375 57.53125 C81.5915625 58.07394531 81.808125 58.61664063 82.03125 59.17578125 C82.44890625 60.24892578 82.44890625 60.24892578 82.875 61.34375 C83.29265625 62.40529297 83.29265625 62.40529297 83.71875 63.48828125 C84.375 65.53125 84.375 65.53125 84.375 68.53125 C85.33921875 68.48484375 86.3034375 68.4384375 87.296875 68.390625 C88.56015625 68.35453125 89.8234375 68.3184375 91.125 68.28125 C92.37796875 68.23484375 93.6309375 68.1884375 94.921875 68.140625 C98.375 68.53125 98.375 68.53125 100.55981445 69.99316406 C103.23999718 73.74073361 102.93117357 77.02949163 102.87109375 81.53125 C102.87254898 82.40394531 102.87400421 83.27664062 102.87550354 84.17578125 C102.87384582 86.01826318 102.86229865 87.86075913 102.84155273 89.703125 C102.81260085 92.52143238 102.82094538 95.3378579 102.83398438 98.15625 C102.82774659 99.9479258 102.81935534 101.73959566 102.80859375 103.53125 C102.81152939 104.37300781 102.81446503 105.21476562 102.81748962 106.08203125 C102.76121844 109.57616138 102.70480823 111.91575222 101.03540039 115.03125 C97.76232214 117.98813763 94.37727984 117.6388014 90.1875 117.59375 C89.10082031 117.58472656 88.01414062 117.57570313 86.89453125 117.56640625 C85.64736328 117.54900391 85.64736328 117.54900391 84.375 117.53125 C83.385 121.16125 82.395 124.79125 81.375 128.53125 C83.16536458 130.2890625 84.95572917 132.046875 86.74609375 133.8046875 C88.97596655 136.16824572 89.35329793 137.39561205 89.875 140.65625 C89.35088966 144.7181051 89.03079095 145.33416524 86.42578125 148.18359375 C85.79043457 148.8796875 85.15508789 149.57578125 84.50048828 150.29296875 C80.74704787 154.24559242 76.9261612 158.123982 73.0625 161.96875 C72.25232422 162.78279297 71.44214844 163.59683594 70.60742188 164.43554688 C69.44629883 165.59473633 69.44629883 165.59473633 68.26171875 166.77734375 C67.56264404 167.47529053 66.86356934 168.1732373 66.14331055 168.89233398 C63.19425843 171.62559187 60.60975312 172.02788088 56.59375 172.03515625 C52.92849385 171.20273012 50.88571714 168.58580617 48.25390625 166.03125 C46.36037386 164.20759369 46.36037386 164.20759369 43.1875 164.46875 C40.56948038 165.45777963 37.97182963 166.48815373 35.375 167.53125 C35.33761719 168.42328125 35.30023438 169.3153125 35.26171875 170.234375 C35.19597656 171.40484375 35.13023437 172.5753125 35.0625 173.78125 C35.00449219 174.94140625 34.94648438 176.1015625 34.88671875 177.296875 C34.3512459 180.68139039 33.77615858 182.13579488 31.375 184.53125 C27.67938546 185.76312151 24.23340275 185.712737 20.3828125 185.734375 C19.59985809 185.74007507 18.81690369 185.74577515 18.01022339 185.75164795 C16.35432279 185.76108845 14.69840349 185.76762816 13.04248047 185.77148438 C10.51626634 185.78118752 7.99086692 185.81221782 5.46484375 185.84375 C3.85417149 185.85028075 2.24349342 185.85553094 0.6328125 185.859375 C-0.4955452 185.8778952 -0.4955452 185.8778952 -1.646698 185.89678955 C-6.1513863 185.87776707 -9.05145151 185.3331303 -12.625 182.53125 C-14.04134833 179.69855334 -13.9713005 177.05658562 -14.1875 173.90625 C-14.31318359 172.12347656 -14.31318359 172.12347656 -14.44140625 170.3046875 C-14.50199219 169.38945312 -14.56257813 168.47421875 -14.625 167.53125 C-19.18390673 165.23991449 -19.18390673 165.23991449 -24.125 164.46875 C-26.70801085 165.56652961 -27.92861773 166.68009692 -29.9375 168.59375 C-32.44426836 170.82922308 -34.17849386 172.05179653 -37.5625 172.34375 C-41.04400853 171.96790784 -42.7569342 170.86939842 -45.32421875 168.52734375 C-46.01878174 167.89465576 -46.71334473 167.26196777 -47.42895508 166.61010742 C-51.17984851 163.05937284 -54.85750816 159.44291285 -58.5 155.78125 C-59.25796875 155.02714844 -60.0159375 154.27304687 -60.796875 153.49609375 C-61.88355469 152.40748047 -61.88355469 152.40748047 -62.9921875 151.296875 C-63.64300293 150.64493164 -64.29381836 149.99298828 -64.96435547 149.32128906 C-67.39567273 146.7005278 -68.56124532 144.8925265 -69.1875 141.34375 C-68.47931373 136.54382086 -66.59017529 134.69809372 -63.25390625 131.328125 C-61.39884463 129.52424249 -61.39884463 129.52424249 -60.625 126.53125 C-61.15443294 124.21711626 -61.15443294 124.21711626 -62.0625 121.84375 C-62.34996094 121.03550781 -62.63742188 120.22726562 -62.93359375 119.39453125 C-63.16175781 118.77964844 -63.38992187 118.16476562 -63.625 117.53125 C-64.83736328 117.58345703 -64.83736328 117.58345703 -66.07421875 117.63671875 C-67.14285156 117.66378906 -68.21148437 117.69085938 -69.3125 117.71875 C-70.89611328 117.77095703 -70.89611328 117.77095703 -72.51171875 117.82421875 C-76.01565615 117.49448813 -77.82198511 116.61709712 -80.625 114.53125 C-83.19667399 109.38790201 -81.93843173 101.23707583 -81.97509766 95.51025391 C-81.99166906 93.61104082 -82.01897477 91.71189039 -82.05712891 89.81298828 C-82.11184978 87.07551716 -82.13376214 84.33950658 -82.1484375 81.6015625 C-82.17110687 80.75353058 -82.19377625 79.90549866 -82.21713257 79.0317688 C-82.19604309 73.15585275 -82.19604309 73.15585275 -79.30053711 69.98876953 C-75.92270759 68.14867078 -73.63548034 68.12678615 -69.8125 68.28125 C-68.65105469 68.31734375 -67.48960937 68.3534375 -66.29296875 68.390625 C-65.41253906 68.43703125 -64.53210938 68.4834375 -63.625 68.53125 C-63.41037109 67.39623047 -63.41037109 67.39623047 -63.19140625 66.23828125 C-62.56384277 63.2389606 -61.63350496 60.42229756 -60.625 57.53125 C-61.2025 56.96277344 -61.78 56.39429688 -62.375 55.80859375 C-68.34320355 49.60207652 -68.34320355 49.60207652 -69.5625 44.96875 C-67.24413795 36.46808914 -57.89573333 29.64892845 -51.8125 23.59375 C-50.95462891 22.73201172 -50.09675781 21.87027344 -49.21289062 20.98242188 C-48.39369141 20.16451172 -47.57449219 19.34660156 -46.73046875 18.50390625 C-45.98949951 17.76406494 -45.24853027 17.02422363 -44.48510742 16.26196289 C-42.24837764 14.1808266 -41.00691823 13.60399633 -38 13.03125 C-33.53106743 13.69331408 -31.69228348 15.78364895 -28.5546875 18.90234375 C-26.45164211 20.67758652 -25.34989341 21.28259053 -22.625 21.53125 C-20.23181238 21.01429561 -20.23181238 21.01429561 -17.875 20.09375 C-17.07578125 19.80628906 -16.2765625 19.51882812 -15.453125 19.22265625 C-14.84984375 18.99449219 -14.2465625 18.76632813 -13.625 18.53125 C-13.68300781 17.56703125 -13.74101562 16.6028125 -13.80078125 15.609375 C-13.86845703 13.71445313 -13.86845703 13.71445313 -13.9375 11.78125 C-13.99550781 10.52828125 -14.05351562 9.2753125 -14.11328125 7.984375 C-13.625 4.53125 -13.625 4.53125 -11.63354492 2.34863281 C-7.62999256 -0.06980781 -4.59091821 -0.04707073 0 0 Z M-12.625 77.53125 C-16.94594362 84.08590177 -17.63274134 90.82922689 -16.625 98.53125 C-14.6468741 105.69917811 -10.57054874 111.97591139 -4.296875 116.0390625 C3.14385503 120.03331942 9.76402545 121.54343906 18.078125 119.37890625 C26.8429806 116.14425716 32.63732281 110.00660437 36.75 101.78125 C38.35808779 93.41919349 38.21888091 86.27650226 33.9140625 78.78515625 C29.09393262 71.72623508 23.74055598 67.65085864 15.375 65.53125 C3.85669295 63.79365158 -5.6151834 68.4701737 -12.625 77.53125 Z " fill="#9FD6FD" transform="translate(210.625,155.46875)"/>
<path d="M0 0 C2.8125 1.5625 2.8125 1.5625 5 4 C6.26259927 9.46447533 5.75080223 13.77511164 4.5625 19.125 C3.6375181 23.44696785 2.78366598 27.55217257 3 32 C4.12535156 32.4846875 5.25070312 32.969375 6.41015625 33.46875 C53.97866214 54.14209254 93.56335352 89.65543083 113.15136719 138.57080078 C132.07043224 187.49111648 131.77384621 241.07996667 110.71484375 289.31640625 C94.77364262 324.61317869 94.77364262 324.61317869 84 330 C80.02642355 330.52981019 78.45829619 330.31881474 75.125 328 C72.98215617 324.97480871 72.08014763 323.01902492 72.32421875 319.28125 C73.51416386 315.26432548 76.16230316 312.30679931 78.71484375 309.04296875 C82.32851759 304.23091418 85.18880571 299.03468679 88.04736328 293.75439453 C88.94159737 292.10755543 89.85870867 290.47319712 90.77734375 288.83984375 C101.89147645 268.09850313 108.28428934 243.52509829 109 220 C109.03996094 218.73671875 109.07992187 217.4734375 109.12109375 216.171875 C110.11157396 168.17297904 91.936414 123.61609959 58.91796875 88.98828125 C40.73299727 70.24777278 18.01908394 56.61680775 -6.57470703 48.0793457 C-13.47070125 45.59796453 -13.47070125 45.59796453 -16.16796875 42.55078125 C-17.08530409 39.7384809 -17.17385589 37.97881283 -16.75 35.0625 C-16.64171875 34.24910156 -16.5334375 33.43570313 -16.421875 32.59765625 C-15.95620933 29.730363 -15.47823525 26.86522079 -15 24 C-16.08716309 24.50337891 -17.17432617 25.00675781 -18.29443359 25.52539062 C-22.42026504 27.43529016 -26.54693402 29.34337446 -30.67382812 31.25097656 C-32.44260332 32.06885923 -34.21116627 32.8872011 -35.97949219 33.70605469 C-45.35402783 38.04670999 -54.73863605 42.36452794 -64.1640625 46.59375 C-64.92608978 46.9386145 -65.68811707 47.283479 -66.47323608 47.63879395 C-71.76689051 50 -71.76689051 50 -74 50 C-67.48748926 58.35040353 -60.42828084 65.79445444 -52.875 73.1875 C-50.7855714 75.23997316 -48.69961338 77.29589109 -46.6171875 79.35546875 C-46.12209183 79.8446579 -45.62699615 80.33384705 -45.11689758 80.83786011 C-41.72411214 84.21480394 -38.51954499 87.70091158 -35.44946289 91.37231445 C-33.19894438 93.89955159 -30.66384075 95.92090478 -28 98 C-27.96261719 97.26394531 -27.92523438 96.52789062 -27.88671875 95.76953125 C-27.2193159 85.86317907 -27.2193159 85.86317907 -24 82 C-20.04927994 80.02463997 -15.75302293 80.44130827 -11.65283203 81.74804688 C-9.07179431 82.82879484 -6.5691871 84.00642639 -4.0625 85.25 C-2.68868164 85.92119873 -2.68868164 85.92119873 -1.28710938 86.60595703 C31.5163794 103.12721448 56.55380423 132.3124791 68.3125 167.0625 C70.86734216 174.93107658 72.70022062 182.8230297 74 191 C74.13148438 191.80824219 74.26296875 192.61648437 74.3984375 193.44921875 C79.16494602 230.35745363 68.25281208 266.69896389 46.4375 296.375 C38.59764129 306.52462318 27.88593068 319.68750577 16 325 C12.30353385 325.29832766 10.46591084 325.23295542 7.125 323.5625 C4.51367202 320.41354567 3.91150691 318.55636877 4.125 314.5 C6.0710719 308.93979457 11.52513896 305.54185548 16 302 C39.29895308 282.95637108 53.43581776 253.5007818 56.71875 223.828125 C59.14806714 190.76241952 50.1650601 158.27695989 28.3359375 132.84375 C16.79756212 119.78533687 4.06634703 110.51909076 -11 102 C-11.23074219 103.24136719 -11.46148437 104.48273438 -11.69921875 105.76171875 C-12.02764429 107.40384646 -12.35712731 109.04576292 -12.6875 110.6875 C-12.83638672 111.50412109 -12.98527344 112.32074219 -13.13867188 113.16210938 C-14.23747697 118.48377326 -15.51557776 121.56148721 -20 125 C-23.3125 125.75 -23.3125 125.75 -27 125 C-32.62978245 120.94375465 -37.34102769 115.66738055 -42 110.5625 C-47.99648232 104.07089529 -54.14820286 97.76873514 -60.45703125 91.58032227 C-63.54434257 88.53415912 -66.51356485 85.4545763 -69.3359375 82.16015625 C-74.46569449 76.20911852 -80.17392969 70.81727798 -85.79296875 65.33398438 C-97.50016078 53.77688455 -97.50016078 53.77688455 -98.5625 47.875 C-97.84300358 44.19757386 -96.56797886 42.72467176 -94 40 C-91.72605083 38.69068589 -89.60781614 37.60985208 -87.21875 36.57421875 C-86.54516449 36.26954178 -85.87157898 35.96486481 -85.17758179 35.6509552 C-82.95717529 34.65043556 -80.72886162 33.66902139 -78.5 32.6875 C-76.93844793 31.98813219 -75.37742075 31.28759134 -73.81689453 30.5859375 C-69.7154322 28.74602478 -65.60685946 26.92261996 -61.49572754 25.10443115 C-57.4191629 23.30043416 -53.34655669 21.48754059 -49.2734375 19.67578125 C-44.69211626 17.63804179 -40.11006935 15.60214967 -35.52148438 13.58081055 C-34.11584156 12.96022302 -32.71024197 12.33953758 -31.3046875 11.71875 C-30.62529114 11.41987381 -29.94589478 11.12099762 -29.24591064 10.81306458 C-25.58910639 9.19284631 -21.97180435 7.51369034 -18.37988281 5.75390625 C-17.61700958 5.3830188 -16.85413635 5.01213135 -16.06814575 4.63000488 C-14.6113044 3.91789176 -13.15916399 3.19604674 -11.71286011 2.46276855 C-7.63600009 0.4737895 -4.53740613 -0.53759564 0 0 Z " fill="#007BE7" transform="translate(285,37)"/>
<path d="M0 0 C0.8245166 -0.0038269 1.6490332 -0.00765381 2.49853516 -0.01159668 C4.23666611 -0.01431097 5.97483825 -0.00698358 7.71289062 0.00976562 C10.36681558 0.03118395 13.0180338 0.00994945 15.671875 -0.015625 C17.36458928 -0.01298164 19.05730189 -0.00785647 20.75 0 C21.93456787 -0.01214539 21.93456787 -0.01214539 23.14306641 -0.02453613 C27.01878991 0.0411221 28.98830473 0.29765757 32.38354492 2.34863281 C34.375 4.53125 34.375 4.53125 34.86328125 7.984375 C34.80527344 9.23734375 34.74726563 10.4903125 34.6875 11.78125 C34.64238281 13.04453125 34.59726563 14.3078125 34.55078125 15.609375 C34.49277344 16.57359375 34.43476563 17.5378125 34.375 18.53125 C38.35436474 20.04066421 42.11241918 21.24707795 46.375 21.53125 C48.69165839 20.0522534 50.01586823 18.41601321 51.73828125 16.2890625 C53.58386152 14.30693572 54.6830965 13.71569755 57.3125 13.15625 C60.88397985 13.11695333 62.40592274 14.04959192 65.0078125 16.44140625 C65.70221436 17.07788086 66.39661621 17.71435547 67.11206055 18.37011719 C71.23451045 22.30710354 75.29109272 26.30371071 79.3125 30.34375 C80.17423828 31.20162109 81.03597656 32.05949219 81.92382812 32.94335938 C82.74173828 33.76255859 83.55964844 34.58175781 84.40234375 35.42578125 C85.51210571 36.53723511 85.51210571 36.53723511 86.64428711 37.67114258 C88.88553352 40.07995291 89.33595362 41.31866416 89.9375 44.59375 C89.1008774 50.45010818 85.48481663 53.48564926 81.375 57.53125 C81.5915625 58.07394531 81.808125 58.61664063 82.03125 59.17578125 C82.44890625 60.24892578 82.44890625 60.24892578 82.875 61.34375 C83.29265625 62.40529297 83.29265625 62.40529297 83.71875 63.48828125 C84.375 65.53125 84.375 65.53125 84.375 68.53125 C85.33921875 68.48484375 86.3034375 68.4384375 87.296875 68.390625 C88.56015625 68.35453125 89.8234375 68.3184375 91.125 68.28125 C92.37796875 68.23484375 93.6309375 68.1884375 94.921875 68.140625 C98.375 68.53125 98.375 68.53125 100.55981445 69.99316406 C103.23999718 73.74073361 102.93117357 77.02949163 102.87109375 81.53125 C102.87254898 82.40394531 102.87400421 83.27664062 102.87550354 84.17578125 C102.87384582 86.01826318 102.86229865 87.86075913 102.84155273 89.703125 C102.81260085 92.52143238 102.82094538 95.3378579 102.83398438 98.15625 C102.82774659 99.9479258 102.81935534 101.73959566 102.80859375 103.53125 C102.81152939 104.37300781 102.81446503 105.21476562 102.81748962 106.08203125 C102.76121844 109.57616138 102.70480823 111.91575222 101.03540039 115.03125 C97.76232214 117.98813763 94.37727984 117.6388014 90.1875 117.59375 C89.10082031 117.58472656 88.01414062 117.57570313 86.89453125 117.56640625 C85.64736328 117.54900391 85.64736328 117.54900391 84.375 117.53125 C83.385 121.16125 82.395 124.79125 81.375 128.53125 C83.16536458 130.2890625 84.95572917 132.046875 86.74609375 133.8046875 C88.97596655 136.16824572 89.35329793 137.39561205 89.875 140.65625 C89.35088966 144.7181051 89.03079095 145.33416524 86.42578125 148.18359375 C85.79043457 148.8796875 85.15508789 149.57578125 84.50048828 150.29296875 C80.74704787 154.24559242 76.9261612 158.123982 73.0625 161.96875 C72.25232422 162.78279297 71.44214844 163.59683594 70.60742188 164.43554688 C69.44629883 165.59473633 69.44629883 165.59473633 68.26171875 166.77734375 C67.56264404 167.47529053 66.86356934 168.1732373 66.14331055 168.89233398 C63.19425843 171.62559187 60.60975312 172.02788088 56.59375 172.03515625 C52.92849385 171.20273012 50.88571714 168.58580617 48.25390625 166.03125 C46.36037386 164.20759369 46.36037386 164.20759369 43.1875 164.46875 C40.56948038 165.45777963 37.97182963 166.48815373 35.375 167.53125 C35.33761719 168.42328125 35.30023438 169.3153125 35.26171875 170.234375 C35.19597656 171.40484375 35.13023437 172.5753125 35.0625 173.78125 C35.00449219 174.94140625 34.94648438 176.1015625 34.88671875 177.296875 C34.3512459 180.68139039 33.77615858 182.13579488 31.375 184.53125 C27.67938546 185.76312151 24.23340275 185.712737 20.3828125 185.734375 C19.59985809 185.74007507 18.81690369 185.74577515 18.01022339 185.75164795 C16.35432279 185.76108845 14.69840349 185.76762816 13.04248047 185.77148438 C10.51626634 185.78118752 7.99086692 185.81221782 5.46484375 185.84375 C3.85417149 185.85028075 2.24349342 185.85553094 0.6328125 185.859375 C-0.4955452 185.8778952 -0.4955452 185.8778952 -1.646698 185.89678955 C-6.1513863 185.87776707 -9.05145151 185.3331303 -12.625 182.53125 C-14.04134833 179.69855334 -13.9713005 177.05658562 -14.1875 173.90625 C-14.31318359 172.12347656 -14.31318359 172.12347656 -14.44140625 170.3046875 C-14.50199219 169.38945312 -14.56257813 168.47421875 -14.625 167.53125 C-19.18390673 165.23991449 -19.18390673 165.23991449 -24.125 164.46875 C-26.70801085 165.56652961 -27.92861773 166.68009692 -29.9375 168.59375 C-32.44426836 170.82922308 -34.17849386 172.05179653 -37.5625 172.34375 C-41.04400853 171.96790784 -42.7569342 170.86939842 -45.32421875 168.52734375 C-46.01878174 167.89465576 -46.71334473 167.26196777 -47.42895508 166.61010742 C-51.17984851 163.05937284 -54.85750816 159.44291285 -58.5 155.78125 C-59.25796875 155.02714844 -60.0159375 154.27304687 -60.796875 153.49609375 C-61.88355469 152.40748047 -61.88355469 152.40748047 -62.9921875 151.296875 C-63.64300293 150.64493164 -64.29381836 149.99298828 -64.96435547 149.32128906 C-67.39567273 146.7005278 -68.56124532 144.8925265 -69.1875 141.34375 C-68.47931373 136.54382086 -66.59017529 134.69809372 -63.25390625 131.328125 C-61.39884463 129.52424249 -61.39884463 129.52424249 -60.625 126.53125 C-61.15443294 124.21711626 -61.15443294 124.21711626 -62.0625 121.84375 C-62.34996094 121.03550781 -62.63742188 120.22726562 -62.93359375 119.39453125 C-63.16175781 118.77964844 -63.38992187 118.16476562 -63.625 117.53125 C-64.83736328 117.58345703 -64.83736328 117.58345703 -66.07421875 117.63671875 C-67.14285156 117.66378906 -68.21148437 117.69085938 -69.3125 117.71875 C-70.89611328 117.77095703 -70.89611328 117.77095703 -72.51171875 117.82421875 C-76.01565615 117.49448813 -77.82198511 116.61709712 -80.625 114.53125 C-83.19667399 109.38790201 -81.93843173 101.23707583 -81.97509766 95.51025391 C-81.99166906 93.61104082 -82.01897477 91.71189039 -82.05712891 89.81298828 C-82.11184978 87.07551716 -82.13376214 84.33950658 -82.1484375 81.6015625 C-82.17110687 80.75353058 -82.19377625 79.90549866 -82.21713257 79.0317688 C-82.19604309 73.15585275 -82.19604309 73.15585275 -79.30053711 69.98876953 C-75.92270759 68.14867078 -73.63548034 68.12678615 -69.8125 68.28125 C-68.65105469 68.31734375 -67.48960937 68.3534375 -66.29296875 68.390625 C-65.41253906 68.43703125 -64.53210938 68.4834375 -63.625 68.53125 C-63.41037109 67.39623047 -63.41037109 67.39623047 -63.19140625 66.23828125 C-62.56384277 63.2389606 -61.63350496 60.42229756 -60.625 57.53125 C-61.2025 56.96277344 -61.78 56.39429688 -62.375 55.80859375 C-68.34320355 49.60207652 -68.34320355 49.60207652 -69.5625 44.96875 C-67.24413795 36.46808914 -57.89573333 29.64892845 -51.8125 23.59375 C-50.95462891 22.73201172 -50.09675781 21.87027344 -49.21289062 20.98242188 C-48.39369141 20.16451172 -47.57449219 19.34660156 -46.73046875 18.50390625 C-45.98949951 17.76406494 -45.24853027 17.02422363 -44.48510742 16.26196289 C-42.24837764 14.1808266 -41.00691823 13.60399633 -38 13.03125 C-33.53106743 13.69331408 -31.69228348 15.78364895 -28.5546875 18.90234375 C-26.45164211 20.67758652 -25.34989341 21.28259053 -22.625 21.53125 C-20.23181238 21.01429561 -20.23181238 21.01429561 -17.875 20.09375 C-17.07578125 19.80628906 -16.2765625 19.51882812 -15.453125 19.22265625 C-14.84984375 18.99449219 -14.2465625 18.76632813 -13.625 18.53125 C-13.68300781 17.56703125 -13.74101562 16.6028125 -13.80078125 15.609375 C-13.86845703 13.71445313 -13.86845703 13.71445313 -13.9375 11.78125 C-13.99550781 10.52828125 -14.05351562 9.2753125 -14.11328125 7.984375 C-13.625 4.53125 -13.625 4.53125 -11.63354492 2.34863281 C-7.62999256 -0.06980781 -4.59091821 -0.04707073 0 0 Z M2.375 17.53125 C2.271875 19.284375 2.16875 21.0375 2.0625 22.84375 C1.76244395 27.94470291 1.76244395 27.94470291 0.25 30.234375 C-2.43441965 32.09109859 -5.21749285 32.94823413 -8.3125 33.96875 C-12.40332539 35.34373353 -16.32923501 36.76529228 -20.125 38.84375 C-23.8478998 40.63871955 -25.5895481 41.38985679 -29.625 40.53125 C-32.17665508 38.74043325 -34.41648829 36.72669359 -36.625 34.53125 C-40.07701639 36.00846422 -42.27461936 37.96919001 -44.875 40.65625 C-45.93460938 41.74292969 -45.93460938 41.74292969 -47.015625 42.8515625 C-47.54671875 43.40585938 -48.0778125 43.96015625 -48.625 44.53125 C-48.20347656 44.95535156 -47.78195313 45.37945312 -47.34765625 45.81640625 C-46.79980469 46.40292969 -46.25195312 46.98945313 -45.6875 47.59375 C-45.14222656 48.16222656 -44.59695312 48.73070312 -44.03515625 49.31640625 C-42.02825735 52.46851616 -41.73080541 54.80062956 -41.625 58.53125 C-42.59400164 61.21880456 -43.55702633 63.47524284 -44.875 65.96875 C-45.53222637 67.28271699 -46.1872001 68.59781328 -46.83984375 69.9140625 C-47.1529248 70.53700195 -47.46600586 71.15994141 -47.78857422 71.80175781 C-48.8203888 73.93525884 -49.65529586 76.10771094 -50.4375 78.34375 C-51.625 81.53125 -51.625 81.53125 -53.625 83.53125 C-57.61438913 84.11694979 -61.59686456 84.27413497 -65.625 84.53125 C-65.625 89.81125 -65.625 95.09125 -65.625 100.53125 C-63.5625 100.675625 -61.5 100.82 -59.375 100.96875 C-53.16629593 101.94305962 -53.16629593 101.94305962 -51.046875 104.24609375 C-50.02464075 106.64141385 -49.32429009 109.02245669 -48.625 111.53125 C-47.7742421 113.66607107 -46.89844428 115.79105547 -46 117.90625 C-45.59523438 118.90398437 -45.19046875 119.90171875 -44.7734375 120.9296875 C-43.64522726 123.68663322 -43.64522726 123.68663322 -41.625 126.53125 C-41.0625 129.21875 -41.0625 129.21875 -41.625 132.53125 C-43.72357769 135.43576526 -46.10026677 137.99363547 -48.625 140.53125 C-45.41739749 144.33760497 -42.21753891 148.07688567 -38.625 151.53125 C-36.0601099 150.43201139 -34.67440881 149.59124641 -32.875 147.40625 C-30.26276618 145.22938848 -28.47536105 144.84618185 -25.09375 145.00390625 C-20.70316264 145.94176906 -16.83139521 148.02479726 -12.828125 150.0078125 C-9.38993877 151.64304742 -5.99661857 152.79353585 -2.33203125 153.79296875 C-0.625 154.53125 -0.625 154.53125 1.375 157.53125 C1.93631311 161.19037601 2.11400503 164.83382122 2.375 168.53125 C7.655 168.53125 12.935 168.53125 18.375 168.53125 C18.4575 166.79875 18.54 165.06625 18.625 163.28125 C18.78886526 159.84007962 18.96979983 158.06776504 21.0625 155.296875 C23.70772267 153.27721174 25.93497749 152.45685239 29.125 151.53125 C32.86743371 150.3867193 36.21637431 149.20198352 39.625 147.28125 C43.84213578 145.09393891 46.64023018 144.76757745 51.375 145.53125 C53.81438597 147.32705329 55.41167961 149.17526553 57.375 151.53125 C60.82701639 150.05403578 63.02461936 148.09330999 65.625 145.40625 C66.33140625 144.68179688 67.0378125 143.95734375 67.765625 143.2109375 C68.29671875 142.65664063 68.8278125 142.10234375 69.375 141.53125 C68.95347656 141.02335937 68.53195312 140.51546875 68.09765625 139.9921875 C67.54980469 139.30382812 67.00195312 138.61546875 66.4375 137.90625 C65.89222656 137.23335938 65.34695313 136.56046875 64.78515625 135.8671875 C63.00508547 132.91848299 62.48945853 130.986202 62.375 127.53125 C63.35056904 124.92303747 64.34312495 122.6608783 65.625 120.21875 C66.28522519 118.89781273 66.94150389 117.57489531 67.59375 116.25 C67.90699219 115.61449219 68.22023438 114.97898437 68.54296875 114.32421875 C69.61586714 112.01219827 70.39611855 109.65891833 71.125 107.21875 C72.375 103.53125 72.375 103.53125 75.375 101.53125 C79.03412601 100.96993689 82.67757122 100.79224497 86.375 100.53125 C86.375 95.25125 86.375 89.97125 86.375 84.53125 C84.456875 84.44875 82.53875 84.36625 80.5625 84.28125 C74.93140829 84.03905251 74.93140829 84.03905251 72.67578125 81.98046875 C70.89496632 78.6274028 69.62776211 75.17260427 68.375 71.59375 C66.41001525 65.99751586 66.41001525 65.99751586 63.69140625 60.7421875 C62.375 58.53125 62.375 58.53125 62.3125 55.09375 C63.70724379 50.41725612 65.80730226 48.79531389 69.375 45.53125 C69.60729504 43.38541368 69.60729504 43.38541368 67.765625 41.875 C67.05921875 41.2665625 66.3528125 40.658125 65.625 40.03125 C64.92890625 39.4228125 64.2328125 38.814375 63.515625 38.1875 C61.53039208 36.65148037 59.65627955 35.5588534 57.375 34.53125 C56.72144531 35.1809375 56.72144531 35.1809375 56.0546875 35.84375 C55.45914063 36.400625 54.86359375 36.9575 54.25 37.53125 C53.66992188 38.088125 53.08984375 38.645 52.4921875 39.21875 C49.56736705 41.03192283 47.77454657 40.91928757 44.375 40.53125 C41.296875 39.359375 41.296875 39.359375 38.125 37.78125 C33.25222874 35.40905322 28.40107476 33.31637336 23.30078125 31.48828125 C21.375 30.53125 21.375 30.53125 19.375 27.53125 C18.81979669 24.20526793 18.63735817 20.89817991 18.375 17.53125 C13.095 17.53125 7.815 17.53125 2.375 17.53125 Z " fill="#fff" transform="translate(210.625,155.46875)"/>
<path d="M0 0 C1.08462524 -0.01260864 2.16925049 -0.02521729 3.28674316 -0.03820801 C5.02909241 -0.02606262 5.02909241 -0.02606262 6.80664062 -0.01367188 C8.00848999 -0.01749878 9.21033936 -0.02132568 10.4486084 -0.02526855 C12.98706908 -0.02798789 15.52555777 -0.02062533 18.06396484 -0.00390625 C21.94887786 0.01750091 25.83194136 -0.00370948 29.71679688 -0.02929688 C32.18424887 -0.02665361 34.65169972 -0.02152865 37.11914062 -0.01367188 C38.86148987 -0.02581726 38.86148987 -0.02581726 40.63903809 -0.03820801 C48.64351594 0.05484312 48.64351594 0.05484312 52.67578125 2.33203125 C55.15596672 5.3651761 55.39367492 7.64149876 55.46289062 11.51757812 C54.36081054 14.91565838 53.54191187 15.4648973 50.46289062 17.51757812 C48.39375305 17.75808716 48.39375305 17.75808716 45.99145508 17.74462891 C44.64039421 17.74440231 44.64039421 17.74440231 43.26203918 17.74417114 C42.29320297 17.73384857 41.32436676 17.723526 40.32617188 17.71289062 C38.83430611 17.70864578 38.83430611 17.70864578 37.31230164 17.70431519 C34.13320932 17.69311301 30.95439791 17.66800826 27.77539062 17.64257812 C25.62109782 17.63254838 23.4668006 17.62342252 21.3125 17.61523438 C16.02910138 17.59487446 10.74631073 17.55572556 5.46289062 17.51757812 C5.46289062 29.06757813 5.46289062 40.61757813 5.46289062 52.51757812 C8.79922607 52.49139404 12.13556152 52.46520996 15.57299805 52.43823242 C26.5891307 52.35542973 37.60527701 52.30017278 48.6216383 52.25851727 C55.30173911 52.23240998 61.98145956 52.19699033 68.66137695 52.14038086 C75.10638375 52.0861032 81.55108396 52.05616606 87.99630165 52.04319191 C90.45674785 52.03394456 92.91717703 52.01588685 95.3774929 51.98892784 C98.82063597 51.95269577 102.2625079 51.94763059 105.70581055 51.94995117 C106.72576614 51.93197479 107.74572174 51.91399841 108.79658508 51.89547729 C113.4898386 51.92976377 115.73345695 51.97823535 119.59614563 54.83430481 C122.07085239 58.39146694 122.22144274 60.26968625 121.46289062 64.51757812 C119.65429688 67.19688416 119.65429688 67.19688416 116.46289062 69.51757812 C112.57115221 70.26380539 108.72779903 70.19012924 104.77539062 70.14868164 C103.59275635 70.15583694 102.41012207 70.16299225 101.19165039 70.17036438 C97.95581156 70.18435986 94.72101048 70.17595912 91.48522949 70.15627408 C88.09496129 70.13986252 84.70474436 70.14870394 81.31445312 70.15379333 C75.62161093 70.15831154 69.92909759 70.14246183 64.23632812 70.11450195 C57.65997261 70.08245087 51.08421012 70.08246641 44.5078125 70.09971672 C38.17472924 70.11559512 31.84186286 70.10883994 25.50878906 70.09177971 C22.81667285 70.08491725 20.1247309 70.08593324 17.43261719 70.09332466 C13.67150011 70.09876886 9.9113927 70.07842454 6.15039062 70.05102539 C4.47795288 70.06081421 4.47795288 70.06081421 2.77172852 70.07080078 C-1.68759635 70.01550561 -4.7306296 69.9369814 -8.72714233 67.85862732 C-11.02203959 64.89035925 -11.17010124 63.26230265 -11.18408203 59.52734375 C-11.19984283 58.31929077 -11.21560364 57.11123779 -11.23184204 55.86657715 C-11.22172089 54.56546997 -11.21159973 53.26436279 -11.20117188 51.92382812 C-11.20454168 50.57148808 -11.20939567 49.21915099 -11.21566772 47.86682129 C-11.22303164 45.03543198 -11.21235114 42.20483248 -11.18896484 39.37353516 C-11.16047485 35.74808136 -11.17688176 32.12447802 -11.20682716 28.4990921 C-11.22491465 25.70739859 -11.21913602 22.91614226 -11.2061882 20.12443542 C-11.20124117 18.13913773 -11.21639907 16.1538229 -11.23184204 14.1685791 C-11.21608124 12.96052612 -11.20032043 11.75247314 -11.18408203 10.5078125 C-11.18010406 9.44510132 -11.1761261 8.38239014 -11.17202759 7.28747559 C-10.53710938 4.51757812 -10.53710938 4.51757812 -8.34274292 2.17553711 C-5.23606657 0.33968012 -3.57501477 0.01196468 0 0 Z " fill="#ffffff" transform="translate(13.537109375,369.482421875)"/>
<path d="M0 0 C12.61454791 6.73755387 21.43133351 16.18420195 25.66015625 30.06640625 C28.41441893 43.35639218 25.33854262 55.63765385 18.1015625 66.9375 C11.0943136 76.19206258 1.50851 81.55255311 -9.65234375 84.25390625 C-23.05793133 85.43999733 -33.59973028 83.1521234 -44.65234375 75.25390625 C-46.16828125 74.20203125 -46.16828125 74.20203125 -47.71484375 73.12890625 C-56.29953953 65.67007221 -60.8059008 53.91260134 -61.890625 42.81640625 C-62.27690393 29.4796179 -57.58764653 18.70050734 -48.5859375 9.03515625 C-36.01161476 -3.02179721 -16.1980948 -7.18524453 0 0 Z M-40.65234375 25.25390625 C-44.97328737 31.80855802 -45.66008509 38.55188314 -44.65234375 46.25390625 C-42.67421785 53.42183436 -38.59789249 59.69856764 -32.32421875 63.76171875 C-24.88348872 67.75597567 -18.2633183 69.26609531 -9.94921875 67.1015625 C-1.18436315 63.86691341 4.60997906 57.72926062 8.72265625 49.50390625 C10.33074404 41.14184974 10.19153716 33.99915851 5.88671875 26.5078125 C1.06658887 19.44889133 -4.28678777 15.37351489 -12.65234375 13.25390625 C-24.1706508 11.51630783 -33.64252715 16.19282995 -40.65234375 25.25390625 Z " fill="#017CE7" transform="translate(238.65234375,207.74609375)"/>
</svg>
